<svg width="199" height="186" viewBox="0 0 199 186" fill="none" xmlns="http://www.w3.org/2000/svg">
<path d="M156.943 125.068C149.947 114.904 134.936 114.904 127.94 125.068L118.276 139.109C110.185 150.863 123.421 165.525 135.938 158.675V158.675C139.99 156.458 144.893 156.458 148.945 158.675V158.675C161.462 165.525 174.698 150.863 166.607 139.109L156.943 125.068Z" fill="#FF4500"/>
<path d="M167.161 87.1088C163.401 81.056 154.593 81.056 150.834 87.1088L147.616 92.2884C143.64 98.6903 148.244 106.97 155.78 106.97H162.215C169.751 106.97 174.355 98.6903 170.378 92.2884L167.161 87.1088Z" fill="#FF4500"/>
<path d="M187.338 114.243C184.202 109.269 176.95 109.269 173.814 114.243L170.996 118.713C167.64 124.036 171.466 130.97 177.758 130.97H183.394C189.686 130.97 193.512 124.036 190.156 118.713L187.338 114.243Z" fill="#FF4500"/>
<path d="M110.525 116.54C107.445 111.654 100.321 111.654 97.241 116.54L94.4733 120.93C91.1769 126.159 94.9345 132.97 101.115 132.97H106.651C112.832 132.97 116.589 126.159 113.293 120.93L110.525 116.54Z" fill="#FF4500"/>
<path d="M133.644 87.0818C129.856 80.9275 120.91 80.9275 117.123 87.0818L113.981 92.1864C110.004 98.6488 114.653 106.97 122.242 106.97H128.525C136.113 106.97 140.762 98.6488 136.785 92.1864L133.644 87.0818Z" fill="#FF4500"/>
<path d="M70.9429 51.4085C63.9469 41.2444 48.9363 41.2444 41.9402 51.4084L32.2757 65.4494C24.1853 77.2033 37.4206 91.865 49.9385 85.0157V85.0157C53.9904 82.7986 58.8927 82.7986 62.9446 85.0157V85.0157C75.4625 91.865 88.6978 77.2033 80.6074 65.4494L70.9429 51.4085Z" fill="#FF4500"/>
<path d="M81.1611 13.4492C77.4015 7.39644 68.5932 7.39643 64.8336 13.4492L61.6163 18.6289C57.6399 25.0308 62.2437 33.3101 69.7801 33.3101H76.2146C83.7509 33.3101 88.3548 25.0308 84.3783 18.6289L81.1611 13.4492Z" fill="#FF4500"/>
<path d="M101.338 40.5837C98.2022 35.6095 90.9498 35.6095 87.8139 40.5837L84.9962 45.0531C81.6403 50.3762 85.4657 57.3101 91.7583 57.3101H97.3937C103.686 57.3101 107.512 50.3762 104.156 45.0531L101.338 40.5837Z" fill="#FF4500"/>
<path d="M24.5253 42.8805C21.445 37.9945 14.3213 37.9946 11.241 42.8805L8.47326 47.2706C5.17692 52.4993 8.93445 59.3101 15.1154 59.3101H20.6508C26.8318 59.3101 30.5893 52.4993 27.293 47.2706L24.5253 42.8805Z" fill="#FF4500"/>
<path d="M47.6436 13.4223C43.8561 7.26798 34.9102 7.26799 31.1226 13.4223L27.9812 18.5268C24.004 24.9893 28.6534 33.3101 36.2416 33.3101H42.5246C50.1129 33.3101 54.7623 24.9893 50.7851 18.5268L47.6436 13.4223Z" fill="#FF4500"/>
</svg>
