<svg width="199" height="186" viewBox="0 0 199 186" fill="none" xmlns="http://www.w3.org/2000/svg">
<path d="M41.9402 125.068C48.9363 114.904 63.9468 114.904 70.9429 125.068L80.6074 139.109C88.6978 150.863 75.4625 165.525 62.9446 158.675V158.675C58.8927 156.458 53.9904 156.458 49.9385 158.675V158.675C37.4207 165.525 24.1853 150.863 32.2757 139.109L41.9402 125.068Z" fill="#D9D9D9"/>
<path d="M31.722 87.1088C35.4816 81.056 44.2899 81.056 48.0495 87.1088L51.2668 92.2884C55.2432 98.6903 50.6394 106.97 43.1031 106.97H36.6685C29.1322 106.97 24.5283 98.6903 28.5048 92.2884L31.722 87.1088Z" fill="#D9D9D9"/>
<path d="M11.5449 114.243C14.6809 109.269 21.9333 109.269 25.0693 114.243L27.8869 118.713C31.2428 124.036 27.4174 130.97 21.1248 130.97H15.4894C9.19678 130.97 5.37137 124.036 8.72726 118.713L11.5449 114.243Z" fill="#D9D9D9"/>
<path d="M88.3578 116.54C91.4382 111.654 98.5618 111.654 101.642 116.54L104.41 120.93C107.706 126.159 103.949 132.97 97.7677 132.97H92.2323C86.0513 132.97 82.2938 126.159 85.5901 120.93L88.3578 116.54Z" fill="#D9D9D9"/>
<path d="M65.2395 87.0818C69.0271 80.9275 77.9729 80.9275 81.7605 87.0818L84.902 92.1864C88.8792 98.6488 84.2297 106.97 76.6415 106.97H70.3585C62.7703 106.97 58.1208 98.6488 62.098 92.1864L65.2395 87.0818Z" fill="#D9D9D9"/>
<path d="M127.94 51.4085C134.936 41.2444 149.947 41.2444 156.943 51.4084L166.607 65.4494C174.698 77.2033 161.462 91.865 148.945 85.0157V85.0157C144.893 82.7986 139.99 82.7986 135.938 85.0157V85.0157C123.421 91.865 110.185 77.2033 118.276 65.4494L127.94 51.4085Z" fill="#D9D9D9"/>
<path d="M117.722 13.4492C121.482 7.39644 130.29 7.39643 134.05 13.4492L137.267 18.6289C141.243 25.0308 136.639 33.3101 129.103 33.3101H122.669C115.132 33.3101 110.528 25.0308 114.505 18.6289L117.722 13.4492Z" fill="#D9D9D9"/>
<path d="M97.5449 40.5837C100.681 35.6095 107.933 35.6095 111.069 40.5837L113.887 45.0531C117.243 50.3762 113.417 57.3101 107.125 57.3101H101.489C95.1968 57.3101 91.3714 50.3762 94.7273 45.0531L97.5449 40.5837Z" fill="#D9D9D9"/>
<path d="M174.358 42.8805C177.438 37.9945 184.562 37.9946 187.642 42.8805L190.41 47.2706C193.706 52.4993 189.949 59.3101 183.768 59.3101H178.232C172.051 59.3101 168.294 52.4993 171.59 47.2706L174.358 42.8805Z" fill="#D9D9D9"/>
<path d="M151.24 13.4223C155.027 7.26798 163.973 7.26799 167.76 13.4223L170.902 18.5268C174.879 24.9893 170.23 33.3101 162.641 33.3101H156.359C148.77 33.3101 144.121 24.9893 148.098 18.5268L151.24 13.4223Z" fill="#D9D9D9"/>
</svg>
